<svg width="40" height="40" viewBox="0 0 40 40" fill="none" xmlns="http://www.w3.org/2000/svg">
<g id="carbon:ibm-cloud-privileged-access-gateway">
<path id="Vector" d="M40 28.75L33.75 35L32 33.25L35.25 30H25V27.5H35.25L32 24.25L33.75 22.5L40 28.75Z" fill="url(#paint0_linear_1471_3253)"/>
<path id="Vector_2" d="M31.8756 3.375C31.3756 2.875 30.7506 2.5 30.0006 2.5H26.6256C25.8756 2.5 25.2506 2.875 25.0006 3.5L24.2506 5H22.5006V4.375C22.5006 3.375 21.6256 2.5 20.6256 2.5H14.3756C13.3756 2.5 12.5006 3.375 12.5006 4.375V5H10.7506L10.0006 3.5C9.7506 2.875 9.1256 2.5 8.3756 2.5H5.0006C4.2506 2.5 3.6256 2.875 3.1256 3.375C2.6256 4 2.3756 4.75 2.5006 5.5L3.3756 10.625C3.7506 12.375 5.2506 13.75 7.1256 13.75H7.5006V28.75C5.3756 28.75 3.7506 30.375 3.7506 32.5V37.5H27.5006V35H21.2506V26.25C21.2506 24.125 19.6256 22.5 17.5006 22.5C15.3756 22.5 13.7506 24.125 13.7506 26.25V35H6.2506V32.5C6.2506 31.75 6.7506 31.25 7.5006 31.25H10.0006V13.75H25.0006V22.5H27.5006V13.75H27.8756C29.7506 13.75 31.2506 12.375 31.6256 10.625L32.5006 5.5C32.6256 4.75 32.3756 4 31.8756 3.375ZM16.2506 26.25C16.2506 25.5 16.7506 25 17.5006 25C18.2506 25 18.7506 25.5 18.7506 26.25V35H16.2506V26.25ZM29.1256 10.25C29.0006 10.875 28.5006 11.25 27.8756 11.25H7.1256C6.5006 11.25 6.0006 10.75 5.8756 10.25L5.0006 5H8.0006L9.2506 7.5H15.0006V5H20.0006V7.5H25.7506L27.0006 5H30.0006L29.1256 10.25Z" fill="url(#paint1_linear_1471_3253)"/>
</g>
<defs>
<linearGradient id="paint0_linear_1471_3253" x1="32.5" y1="22.5" x2="32.5" y2="35" gradientUnits="userSpaceOnUse">
<stop stop-color="#8A73AD"/>
<stop offset="1" stop-color="#44C8F5"/>
</linearGradient>
<linearGradient id="paint1_linear_1471_3253" x1="17.5006" y1="2.5" x2="17.5006" y2="37.5" gradientUnits="userSpaceOnUse">
<stop stop-color="#8A73AD"/>
<stop offset="1" stop-color="#44C8F5"/>
</linearGradient>
</defs>
</svg>
